<?xml version="1.0" standalone="no"?>
<!DOCTYPE svg PUBLIC "-//W3C//DTD SVG 20010904//EN"
 "http://www.w3.org/TR/2001/REC-SVG-20010904/DTD/svg10.dtd">
<svg version="1.0" xmlns="http://www.w3.org/2000/svg"
 width="257.000000pt" height="150.000000pt" viewBox="0 0 257.000000 150.000000"
 preserveAspectRatio="xMidYMid meet">

<g transform="translate(0.000000,150.000000) scale(0.100000,-0.100000)"
fill="#3B82F6" stroke="none">
<path d="M110 740 l0 -670 1195 0 1195 0 0 670 0 670 -1195 0 -1195 0 0 -670z
m2380 0 l0 -660 -1185 0 -1185 0 0 660 0 660 1185 0 1185 0 0 -660z"/>
<path d="M687 1130 c-63 -16 -137 -59 -187 -110 -156 -155 -156 -403 0 -560
120 -119 298 -151 448 -80 60 28 135 87 153 121 7 15 0 25 -42 57 l-52 39 -29
-33 c-74 -84 -213 -110 -316 -58 -150 75 -189 268 -82 404 93 117 297 121 397
7 l31 -35 51 36 c28 20 51 40 51 45 1 23 -91 101 -155 133 -60 30 -85 36 -151
39 -44 3 -96 0 -117 -5z"/>
<path d="M1150 1113 c0 -5 174 -635 206 -745 4 -15 17 -18 69 -18 l64 0 97
170 c53 94 99 170 103 170 3 0 49 -76 101 -168 l96 -167 64 -3 65 -3 104 373
c57 205 106 379 109 386 3 10 -12 12 -69 10 l-73 -3 -76 -269 c-41 -148 -79
-271 -85 -272 -5 -2 -46 61 -90 139 l-80 142 -66 3 -66 3 -83 -146 c-45 -80
-85 -147 -89 -150 -5 -2 -38 105 -74 238 -37 133 -72 259 -77 280 l-11 37 -69
0 c-39 0 -70 -3 -70 -7z"/>
</g>
</svg>
